<?xml version="1.0" standalone="no"?>
<!DOCTYPE svg PUBLIC "-//W3C//DTD SVG 20010904//EN"
 "http://www.w3.org/TR/2001/REC-SVG-20010904/DTD/svg10.dtd">
<svg version="1.0" xmlns="http://www.w3.org/2000/svg"
 width="260.000000pt" height="260.000000pt" viewBox="0 0 260.000000 260.000000"
 preserveAspectRatio="xMidYMid meet">
<metadata>
Created by potrace 1.11, written by Peter Selinger 2001-2013
</metadata>
<g transform="translate(0.000000,260.000000) scale(0.100000,-0.100000)"
fill="#000000" stroke="none">
<path d="M210 2592 c0 -5 -26 -8 -57 -7 -33 2 -64 -2 -72 -8 -12 -9 -13 -9 -7
1 4 6 3 12 -3 12 -11 0 -33 -35 -37 -57 -1 -7 3 -16 8 -20 6 -3 8 -2 5 4 -3 5
0 10 8 10 21 0 19 -15 -3 -21 -17 -6 -27 -56 -12 -56 4 0 7 -6 7 -12 0 -7 4
-21 8 -30 4 -11 3 -18 -5 -18 -6 0 -8 5 -5 10 3 6 2 10 -4 10 -5 0 -9 -9 -8
-20 1 -15 6 -19 22 -14 11 3 16 2 10 -3 -16 -13 -17 -34 -3 -52 11 -14 11 -14
-3 -3 -14 10 -18 10 -22 -3 -4 -8 -3 -14 1 -14 19 3 26 -2 13 -10 -16 -11 -21
-73 -7 -83 7 -5 5 -8 -4 -8 -13 0 -13 -1 0 -11 12 -8 12 -12 2 -16 -10 -4 -8
-9 8 -20 15 -11 18 -18 11 -27 -6 -7 -7 -17 -3 -21 4 -5 1 -4 -7 0 -11 6 -13
4 -8 -7 3 -9 0 -21 -6 -28 -9 -10 -7 -11 12 -5 16 5 21 4 17 -4 -4 -6 -13 -11
-20 -11 -15 0 -16 -71 -1 -82 6 -5 4 -8 -5 -8 -13 0 -13 -1 0 -11 11 -8 12
-12 3 -16 -7 -2 -13 -10 -13 -15 0 -6 3 -8 7 -5 3 4 12 2 19 -4 11 -9 11 -15
-2 -34 -13 -20 -13 -23 0 -28 18 -7 11 -37 -8 -37 -15 0 -15 -72 -1 -82 6 -5
4 -8 -5 -8 -13 0 -13 -1 0 -11 11 -8 12 -12 2 -16 -8 -3 -6 -10 9 -22 19 -15
20 -18 5 -30 -19 -16 -21 -32 -3 -27 6 1 9 1 5 -1 -5 -3 -8 -11 -8 -19 0 -8
-8 -14 -17 -15 -13 0 -11 -3 7 -10 21 -9 23 -12 10 -22 -17 -14 -24 -37 -11
-37 5 0 12 -7 15 -16 6 -15 4 -15 -10 -3 -16 13 -16 12 -5 -9 7 -12 16 -20 22
-17 15 10 10 -2 -8 -16 -14 -12 -16 -12 -8 0 5 9 4 12 -3 8 -12 -8 -10 -32 3
-44 4 -4 5 -2 1 4 -5 9 -2 11 10 6 11 -4 13 -8 6 -11 -7 -2 -10 -8 -7 -12 3
-5 0 -12 -6 -16 -8 -5 -9 -3 -4 6 5 8 4 11 -3 6 -5 -3 -13 0 -15 6 -4 9 -6 10
-6 1 -1 -6 3 -14 9 -18 5 -3 7 -12 3 -21 -3 -8 2 -23 12 -34 15 -17 16 -20 3
-25 -15 -6 -21 -35 -6 -35 4 0 8 5 8 12 0 6 2 9 5 6 9 -9 -7 -38 -17 -32 -6 4
-6 -2 1 -14 6 -11 16 -22 23 -24 7 -3 5 -7 -6 -11 -12 -5 -15 -3 -10 6 4 7 3
9 -2 4 -5 -5 -9 -12 -9 -15 0 -4 -3 -12 -7 -18 -4 -6 -1 -11 7 -11 8 0 12 4 9
9 -3 4 2 5 11 2 14 -6 14 -8 -2 -19 -10 -7 -22 -11 -27 -8 -5 4 -6 1 -2 -6 4
-6 11 -9 16 -6 19 12 18 -27 -2 -45 -20 -19 -21 -19 -1 -16 11 3 20 -1 20 -9
0 -7 -8 -10 -21 -7 -19 4 -19 3 -4 -9 17 -14 19 -54 4 -78 -5 -7 -9 -38 -9
-68 0 -41 5 -58 19 -69 11 -9 13 -13 6 -9 -6 3 -20 -1 -29 -11 -16 -16 -16
-16 3 -10 16 5 20 2 20 -19 0 -14 -3 -25 -8 -25 -4 0 -5 -7 -2 -15 4 -8 1 -15
-6 -15 -8 0 -7 -8 5 -26 9 -15 12 -23 6 -20 -6 4 -11 0 -11 -8 0 -9 6 -16 13
-16 8 0 7 -4 -3 -10 -8 -5 -11 -10 -5 -10 5 0 3 -6 -3 -12 -10 -10 -8 -16 10
-31 13 -10 17 -16 10 -12 -6 3 -20 -1 -29 -11 -16 -16 -16 -16 3 -10 16 5 20
2 20 -19 0 -14 -2 -25 -5 -25 -11 0 -9 -55 2 -69 9 -12 9 -13 0 -7 -9 4 -13 1
-13 -10 0 -14 -2 -15 -18 -3 -9 7 -7 2 6 -13 17 -19 20 -28 11 -33 -8 -6 -5
-13 12 -27 13 -11 18 -17 11 -13 -6 3 -20 -1 -29 -11 -16 -16 -16 -16 3 -10
16 5 20 2 20 -19 0 -14 -3 -25 -8 -25 -4 0 -5 -7 -2 -15 4 -8 1 -15 -6 -15 -8
0 -7 -8 5 -26 9 -15 12 -23 6 -20 -6 4 -11 0 -11 -8 0 -9 6 -16 13 -16 8 0 7
-4 -3 -10 -13 -9 -7 -14 13 -11 12 2 8 -6 -10 -20 -15 -12 -16 -12 -8 1 7 12
6 13 -7 3 -8 -7 -19 -9 -24 -5 -4 4 -3 0 4 -9 6 -9 10 -18 7 -21 -3 -2 2 -5
10 -5 8 0 12 4 9 9 -3 4 0 8 5 8 6 0 11 -4 11 -9 0 -14 -26 -32 -35 -23 -5 4
-5 1 -1 -6 4 -7 12 -10 17 -7 5 3 6 -2 2 -11 -4 -10 -2 -15 4 -11 5 3 10 -1
10 -9 0 -11 -5 -10 -22 6 l-21 20 0 -25 c0 -19 3 -22 13 -13 8 6 13 7 13 0 0
-12 48 -13 56 -1 3 5 11 9 17 9 7 0 6 -4 -3 -10 -12 -8 -10 -10 10 -7 34 4 52
16 44 29 -4 7 -2 8 5 4 9 -6 9 -11 0 -22 -14 -17 2 -19 20 -2 11 10 13 10 7 1
-4 -7 -2 -13 3 -13 6 0 11 6 11 13 0 8 3 9 8 1 9 -14 75 -14 84 0 5 8 8 7 8
-1 0 -7 5 -13 11 -13 5 0 7 6 3 13 -6 9 -4 9 7 1 27 -22 88 -6 72 19 -3 6 -1
7 6 3 9 -6 9 -11 0 -22 -14 -17 2 -19 20 -2 11 10 13 10 7 1 -4 -7 -2 -13 3
-13 6 0 11 6 11 13 0 8 3 9 8 1 4 -6 23 -11 42 -11 19 0 38 5 42 11 5 8 8 7 8
-1 0 -7 5 -13 11 -13 5 0 7 6 3 13 -6 9 -4 9 7 1 27 -22 88 -6 72 19 -3 6 -1
7 6 3 9 -6 9 -11 0 -22 -14 -17 2 -19 20 -2 11 10 13 10 7 1 -4 -7 -2 -13 3
-13 6 0 11 6 11 13 0 8 3 9 8 1 9 -14 75 -14 84 0 5 8 8 7 8 -1 0 -7 5 -13 11
-13 5 0 7 6 3 13 -6 9 -4 9 7 1 27 -22 88 -6 72 19 -3 6 -1 7 6 3 9 -6 9 -11
0 -22 -14 -17 2 -19 20 -2 11 10 13 10 7 1 -4 -7 -2 -13 3 -13 6 0 11 6 11 13
0 8 3 9 8 1 9 -14 75 -14 84 0 5 8 8 7 8 -1 0 -7 5 -13 11 -13 5 0 7 6 3 13
-6 9 -4 9 7 1 27 -22 88 -6 72 19 -3 6 -1 7 6 3 9 -6 9 -11 0 -22 -14 -17 2
-19 20 -1 11 10 13 10 7 0 -4 -7 -2 -13 3 -13 6 0 11 6 11 13 0 8 3 9 8 1 9
-14 75 -14 84 0 5 8 8 7 8 -1 0 -7 5 -13 11 -13 5 0 7 6 3 13 -6 9 -4 9 7 1
27 -22 88 -6 72 19 -3 6 -1 7 6 3 9 -6 9 -11 0 -22 -14 -17 2 -19 20 -1 11 9
13 9 7 0 -4 -7 -2 -13 3 -13 6 0 11 6 11 13 0 8 3 9 8 1 9 -14 75 -14 84 0 5
8 8 7 8 -1 0 -7 5 -13 11 -13 5 0 7 6 3 13 -6 9 -4 9 7 1 27 -22 88 -6 72 19
-3 6 -1 7 6 3 9 -6 9 -11 0 -22 -14 -17 2 -19 20 -1 11 9 13 9 7 0 -4 -7 -2
-13 3 -13 6 0 11 6 11 13 0 8 3 9 8 1 9 -14 75 -14 84 0 5 8 8 7 8 -1 0 -7 5
-13 11 -13 5 0 7 6 3 13 -6 9 -4 9 7 1 27 -22 88 -6 72 19 -3 6 -1 7 6 3 9 -6
9 -11 0 -22 -14 -17 2 -19 20 -1 11 10 13 10 7 0 -4 -7 -2 -13 3 -13 6 0 11 6
11 13 0 8 3 9 8 1 9 -14 75 -14 84 0 5 8 8 7 8 -1 0 -7 5 -13 11 -13 5 0 7 6
3 13 -6 9 -4 9 7 1 27 -22 88 -6 72 19 -3 6 -1 7 6 3 9 -6 9 -11 0 -22 -14
-17 2 -19 20 -1 11 10 13 10 7 0 -4 -7 -2 -13 3 -13 6 0 11 6 11 13 0 8 3 9 8
1 4 -6 23 -11 42 -11 19 0 38 5 42 11 5 8 8 7 8 -1 0 -7 5 -13 11 -13 5 0 7 6
3 13 -6 9 -4 9 7 1 18 -14 50 -14 68 0 12 9 13 8 7 -3 -6 -9 -5 -12 5 -9 8 3
13 11 11 17 -1 7 2 10 8 6 6 -3 8 -11 5 -16 -4 -5 -1 -9 6 -9 6 0 9 8 6 20 -3
11 -1 18 4 14 5 -3 9 -12 9 -20 0 -17 16 -19 23 -1 4 9 6 9 6 0 1 -7 6 -13 12
-13 5 0 7 6 3 13 -6 10 -4 10 7 0 20 -19 33 -16 18 5 -11 14 -10 13 9 -2 22
-19 22 -19 44 0 17 14 19 15 10 2 -12 -15 -10 -17 21 -15 29 2 33 4 24 16 -7
8 -7 12 -2 9 7 -5 10 388 9 1250 0 691 -2 1263 -3 1270 0 7 -9 12 -18 10 -10
-1 -24 1 -30 5 -7 5 -13 4 -13 -1 0 -10 -91 -9 -108 2 -7 4 -12 3 -12 -2 0
-10 -91 -9 -108 2 -7 4 -12 3 -12 -2 0 -10 -91 -9 -108 2 -7 4 -12 3 -12 -2 0
-10 -91 -9 -108 2 -7 4 -12 3 -12 -2 0 -10 -91 -9 -108 2 -7 4 -12 3 -12 -2 0
-10 -91 -9 -108 2 -7 4 -12 3 -12 -2 0 -10 -91 -9 -108 2 -7 4 -12 3 -12 -2 0
-10 -91 -9 -108 2 -7 4 -12 3 -12 -2 0 -10 -91 -9 -108 2 -7 4 -12 3 -12 -2 0
-10 -91 -9 -108 2 -7 4 -12 3 -12 -2 0 -10 -91 -9 -108 2 -7 4 -12 3 -12 -2 0
-10 -91 -9 -108 2 -7 4 -12 3 -12 -2 0 -10 -91 -9 -108 2 -7 4 -12 3 -12 -2 0
-10 -91 -9 -108 2 -7 4 -12 3 -12 -2 0 -10 -91 -9 -108 2 -7 4 -12 3 -12 -2 0
-10 -91 -9 -108 2 -7 4 -12 3 -12 -2 0 -10 -91 -9 -108 2 -7 4 -12 3 -12 -2 0
-10 -91 -9 -108 2 -7 4 -12 3 -12 -2 0 -10 -91 -9 -108 2 -7 4 -12 3 -12 -2z
m-153 -117 c0 -8 -4 -12 -9 -9 -5 3 -6 10 -3 15 9 13 12 11 12 -6z m13 -199
c0 -2 -7 -7 -16 -10 -8 -3 -12 -2 -9 4 6 10 25 14 25 6z m-13 -33 c-4 -3 -1
-13 6 -22 11 -14 10 -14 -5 -2 -16 12 -16 31 -1 31 4 0 3 -3 0 -7z m13 -207
c0 -2 -7 -7 -16 -10 -8 -3 -12 -2 -9 4 6 10 25 14 25 6z m-13 -33 c-4 -3 -1
-13 6 -22 11 -14 10 -14 -5 -2 -16 12 -16 31 -1 31 4 0 3 -3 0 -7z m13 -207
c0 -2 -7 -7 -16 -10 -8 -3 -12 -2 -9 4 6 10 25 14 25 6z m-13 -33 c-4 -3 -1
-13 6 -22 11 -14 10 -14 -5 -2 -16 12 -16 31 -1 31 4 0 3 -3 0 -7z m-10 -415
c-3 -8 -6 -5 -6 6 -1 11 2 17 5 13 3 -3 4 -12 1 -19z m214 -1301 c-8 -8 -14
-7 -23 2 -11 10 -9 11 6 5 15 -6 17 -4 11 6 -6 9 -4 11 4 5 9 -5 10 -10 2 -18z
m86 8 c0 -8 -4 -12 -9 -9 -5 3 -6 10 -3 15 9 13 12 11 12 -6z m154 -8 c-8 -8
-14 -7 -23 2 -11 10 -9 11 6 5 15 -6 17 -4 11 6 -6 9 -4 11 4 5 9 -5 10 -10 2
-18z m86 8 c0 -8 -4 -12 -9 -9 -5 3 -6 10 -3 15 9 13 12 11 12 -6z m154 -8
c-8 -8 -14 -7 -23 2 -11 10 -9 11 6 5 15 -6 17 -4 11 6 -6 9 -4 11 4 5 9 -5
10 -10 2 -18z m86 8 c0 -8 -4 -12 -9 -9 -5 3 -6 10 -3 15 9 13 12 11 12 -6z
m154 -8 c-8 -8 -14 -7 -23 2 -11 10 -9 11 6 5 15 -6 17 -4 11 6 -6 9 -4 11 4
5 9 -5 10 -10 2 -18z m86 8 c0 -8 -4 -12 -9 -9 -5 3 -6 10 -3 15 9 13 12 11
12 -6z m154 -8 c-8 -8 -14 -7 -23 2 -11 10 -9 11 6 5 15 -6 17 -4 11 6 -6 9
-4 11 4 5 9 -5 10 -10 2 -18z m86 8 c0 -8 -4 -12 -9 -9 -5 3 -6 10 -3 15 9 13
12 11 12 -6z m154 -8 c-8 -8 -14 -7 -23 2 -11 10 -9 11 6 5 15 -6 17 -4 11 6
-6 9 -4 11 4 5 9 -5 10 -10 2 -18z m86 8 c0 -8 -4 -12 -9 -9 -5 3 -6 10 -3 15
9 13 12 11 12 -6z m154 -8 c-8 -8 -14 -7 -23 2 -11 10 -9 11 6 5 15 -6 17 -4
11 6 -6 9 -4 11 4 5 9 -5 10 -10 2 -18z m86 8 c0 -8 -4 -12 -9 -9 -5 3 -6 10
-3 15 9 13 12 11 12 -6z m154 -8 c-8 -8 -14 -7 -23 2 -11 10 -9 11 6 5 15 -6
17 -4 11 6 -6 9 -4 11 4 5 9 -5 10 -10 2 -18z m86 8 c0 -8 -4 -12 -9 -9 -5 3
-6 10 -3 15 9 13 12 11 12 -6z m154 -8 c-8 -8 -14 -7 -23 2 -11 10 -9 11 6 5
15 -6 17 -4 11 6 -6 9 -4 11 4 5 9 -5 10 -10 2 -18z m86 8 c0 -8 -4 -12 -9 -9
-5 3 -6 10 -3 15 9 13 12 11 12 -6z"/>
<path d="M26 2348 c3 -5 10 -6 15 -3 13 9 11 12 -6 12 -8 0 -12 -4 -9 -9z"/>
<path d="M26 2139 c3 -5 12 -9 21 -9 19 0 9 13 -12 16 -8 1 -13 -2 -9 -7z"/>
<path d="M35 1900 c-3 -5 1 -10 10 -10 9 0 13 5 10 10 -3 6 -8 10 -10 10 -2 0
-7 -4 -10 -10z"/>
<path d="M35 1830 c-3 -5 -2 -10 4 -10 5 0 13 5 16 10 3 6 2 10 -4 10 -5 0
-13 -4 -16 -10z"/>
<path d="M31 1654 c6 -7 16 -11 21 -8 11 7 3 17 -18 20 -12 2 -13 -1 -3 -12z"/>
<path d="M27 1319 c7 -7 15 -10 18 -7 3 3 -2 9 -12 12 -14 6 -15 5 -6 -5z"/>
<path d="M30 1119 c0 -5 5 -7 10 -4 6 3 10 8 10 11 0 2 -4 4 -10 4 -5 0 -10
-5 -10 -11z"/>
<path d="M10 1040 c-12 -7 -10 -9 7 -7 12 0 19 5 17 9 -6 10 -6 10 -24 -2z"/>
<path d="M10 1005 c-10 -13 -11 -18 -1 -28 10 -9 11 -8 5 6 -5 14 -2 16 12 11
14 -4 16 -3 5 4 -11 8 -11 10 0 15 8 3 9 6 3 6 -6 1 -17 -6 -24 -14z"/>
<path d="M10 839 c0 -5 5 -7 10 -4 6 3 10 8 10 11 0 2 -4 4 -10 4 -5 0 -10 -5
-10 -11z"/>
<path d="M4 699 c-3 -6 2 -18 12 -27 17 -16 17 -16 5 0 -7 9 -10 22 -6 28 3 5
4 10 1 10 -3 0 -8 -5 -12 -11z"/>
<path d="M10 599 c0 -5 5 -7 10 -4 6 3 10 8 10 11 0 2 -4 4 -10 4 -5 0 -10 -5
-10 -11z"/>
<path d="M10 359 c0 -5 5 -7 10 -4 6 3 10 8 10 11 0 2 -4 4 -10 4 -5 0 -10 -5
-10 -11z"/>
<path d="M4 219 c-3 -6 2 -18 12 -27 17 -16 17 -16 5 0 -7 9 -10 22 -6 28 3 5
4 10 1 10 -3 0 -8 -5 -12 -11z"/>
</g>
</svg>
